<?xml version="1.0" encoding="iso-8859-1"?>
<!-- Uploaded to: SVG Repo, www.svgrepo.com, Generator: SVG Repo Mixer Tools -->
<!DOCTYPE svg PUBLIC "-//W3C//DTD SVG 1.1//EN" "http://www.w3.org/Graphics/SVG/1.1/DTD/svg11.dtd">
<svg fill="#000000" version="1.1" id="Capa_1" xmlns="http://www.w3.org/2000/svg" xmlns:xlink="http://www.w3.org/1999/xlink" 
	 width="800px" height="800px" viewBox="0 0 299.194 299.194"
	 xml:space="preserve">
<g>
	<g>
		<path d="M64.953,81.004l0.228-0.106c0.173,1.554,0.407,3.123,0.735,4.689c5.743,27.359,32.588,44.879,59.95,39.136
			c1.087-0.228,2.131-0.546,3.187-0.839l15.954-37.552l20.065-21.119c-0.031-0.142-0.036-0.29-0.072-0.435
			c-2.082-9.921-6.965-18.515-13.608-25.212l0.021-0.01C121.221,3.482,84.458,0,84.458,0s2.561,5.98-12.412,27.812
			C57.077,49.63,64.953,81.004,64.953,81.004z"/>
		<path d="M202.654,278.676c10.692-4.251,15.597-21.427,10.946-38.369l-6.317-23.043l-8.688,20.05l0.176,0.021l-16.197,37.417
			C189.408,279.303,196.762,281.012,202.654,278.676z"/>
		<path d="M214.507,130.264l-47.985,106.578c7.498,1.559,15.845,2.662,25.052,3.153l43.366-100.155
			C226.049,138.271,219.079,133.997,214.507,130.264z"/>
		<path d="M88.505,264.25l69.824,34.196c3.703,1.812,8.037,0.218,9.673-3.562l18.021-41.627
			c-41.791-5.06-68.722-21.06-85.465-36.438l-15.84,37.271C83.102,257.886,84.787,262.438,88.505,264.25z"/>
		<path d="M106.548,201.802c2.879,4.08,7.461,9.518,14.418,15.017l47.186-104.79c-8.182-1.341-14.855-5.01-19.757-8.717
			L106.548,201.802z"/>
		<path d="M204.285,125.688c-11.812-1.543-20.365-6.015-25.626-9.714l-48.312,107.296c6.781,4.064,15.068,7.845,25.124,10.822
			L204.285,125.688z"/>
		<path d="M202.805,46.655c6.239,4.725,16.146,10.139,30.146,12.27l-1.905-39.74L202.805,46.655z"/>
		<path d="M154.368,93.778c4.971,3.922,12.505,8.075,21.909,7.56l2.708-0.148l1.802,2.041c0.414,0.456,10.988,11.837,31.897,11.837
			h2.744l1.673,2.151c0.378,0.461,7.487,9.188,19.211,11.475l-2.802-58.381c-18.356-2.314-31.079-9.623-38.8-15.777L154.368,93.778z
			"/>
		<path d="M97.624,130.501l15.765,28.684l11.363-26.747C115.397,133.953,106.152,133.233,97.624,130.501z"/>
	</g>
</g>
</svg>